<!DOCTYPE svg PUBLIC "-//W3C//DTD SVG 1.1//EN" "http://www.w3.org/Graphics/SVG/1.1/DTD/svg11.dtd">
<!-- Uploaded to: SVG Repo, www.svgrepo.com, Transformed by: SVG Repo Mixer Tools -->
<svg fill="#ffffff" height="800px" width="800px" version="1.1" id="Layer_1" xmlns="http://www.w3.org/2000/svg" xmlns:xlink="http://www.w3.org/1999/xlink" viewBox="-51.2 -51.2 614.41 614.41" xml:space="preserve" stroke="#ffffff" stroke-width="12.288263999999998">
<g id="SVGRepo_bgCarrier" stroke-width="0"/>
<g id="SVGRepo_tracerCarrier" stroke-linecap="round" stroke-linejoin="round"/>
<g id="SVGRepo_iconCarrier"> <g> <g> <g> <path d="M266.672,384c5.888,0,10.667-4.779,10.667-10.667v-64c0-5.888-4.779-10.667-10.667-10.667s-10.667,4.779-10.667,10.667 v64C256.005,379.221,260.784,384,266.672,384z"/> <path d="M490.672,0H21.339C9.563,0,0.005,9.557,0.005,21.333v149.333h512V21.333C512.005,9.557,502.469,0,490.672,0z M256.005,128H85.339c-11.776,0-21.333-9.557-21.333-21.333s9.557-21.333,21.333-21.333h170.667 c11.776,0,21.333,9.557,21.333,21.333S267.781,128,256.005,128z M441.755,112.917c8.341,8.341,8.341,21.824,0,30.165 c-4.16,4.16-9.621,6.251-15.083,6.251s-10.923-2.091-15.083-6.251l-6.251-6.251l-6.251,6.251 c-4.16,4.16-9.621,6.251-15.083,6.251c-5.461,0-10.923-2.091-15.083-6.251c-8.341-8.341-8.341-21.824,0-30.165l6.251-6.251 l-6.251-6.251c-8.341-8.341-8.341-21.824,0-30.165s21.824-8.341,30.165,0l6.251,6.251l6.251-6.251 c8.341-8.341,21.824-8.341,30.165,0c8.341,8.341,8.341,21.824,0,30.165l-6.251,6.251L441.755,112.917z"/> <path d="M0.005,490.677c0,11.776,9.557,21.333,21.333,21.333h469.333c11.797,0,21.333-9.557,21.333-21.333V213.344h-512V490.677z M341.339,263.115c0-11.776,9.557-21.333,21.333-21.333s21.333,9.557,21.333,21.333v56.896c0-11.797,9.557-21.333,21.333-21.333 s21.333,9.536,21.333,21.333c11.776,0,21.333,9.536,21.333,21.333c0,11.776-9.557,21.333-21.333,21.333v42.667 c0,11.776-9.557,21.333-21.333,21.333s-21.333-9.557-21.333-21.333v-42.667h-21.333c-11.776,0-21.333-9.557-21.333-21.333 V263.115z M213.339,309.344c0-29.419,23.936-53.333,53.333-53.333s53.333,23.915,53.333,53.333v64 c0,29.397-23.936,53.333-53.333,53.333s-53.333-23.936-53.333-53.333V309.344z M85.339,263.115 c0-11.776,9.557-21.333,21.333-21.333s21.333,9.557,21.333,21.333v56.896c0-11.797,9.557-21.333,21.333-21.333 s21.333,9.536,21.333,21.333c11.776,0,21.333,9.536,21.333,21.333c0,11.776-9.557,21.333-21.333,21.333v42.667 c0,11.776-9.557,21.333-21.333,21.333s-21.333-9.557-21.333-21.333v-42.667h-21.333c-11.776,0-21.333-9.557-21.333-21.333 V263.115z"/> </g> </g> </g> </g>
</svg>